Coordinates
version=1
nRows=16
nColumns=22
inDegrees=yes

Units are S.I. units (second, meters, Newtons, ...)
If the header above contains a line with 'inDegrees', this indicates whether rotational values are in degrees (yes) or radians (no).

endheader
time	pelvis_tilt	pelvis_list	pelvis_rotation	pelvis_tx	pelvis_ty	pelvis_tz	hip_flexion_r	hip_adduction_r	hip_rotation_r	knee_angle_r	ankle_angle_r	subtalar_angle_r	hip_flexion_l	hip_adduction_l	hip_rotation_l	knee_angle_l	ankle_angle_l	subtalar_angle_l	lumbar_extension	lumbar_bending	lumbar_rotation
      0.01000000	     -1.52959628	     -4.38696084	     -1.23960190	     -1.28679093	      1.01945497	      0.66856785	      4.23018413	      2.23156556	     -5.74449235	    -14.60353292	     10.50662599	     -1.77025376	      1.82463736	     -1.65746241	     -3.53481339	    -11.02642830	     13.14694489	     -5.33032330	    -10.95142524	      3.81313820	      3.31767502
      0.02000000	     -1.50836288	     -4.41002271	     -1.30625592	     -1.28634837	      1.01940373	      0.66772846	      4.44186628	      2.17790636	     -5.71640585	    -15.07862295	     10.54201685	     -1.72365974	      1.79128284	     -1.62570451	     -3.57581493	    -11.07574714	     13.21661052	     -5.41379184	    -11.02800987	      3.82815603	      3.38695173
      0.03000000	     -1.56400316	     -4.43244964	     -1.39872795	     -1.28587098	      1.01922217	      0.66680990	      4.81433426	      2.11411784	     -5.66055511	    -15.70073093	     10.58186885	     -1.59640155	      1.85302455	     -1.58841190	     -3.60513001	    -11.15903105	     13.26647795	     -5.51183905	    -11.02395084	      3.83382520	      3.49001185
      0.04000000	     -1.58825306	     -4.43773919	     -1.50594565	     -1.28532877	      1.01906359	      0.66582206	      5.20789376	      2.02238278	     -5.59171659	    -16.42682628	     10.65354585	     -1.49104167	      1.88366823	     -1.52681724	     -3.65696969	    -11.25845723	     13.33447681	     -5.58269124	    -11.06380865	      3.81538503	      3.58865269
      0.05000000	     -1.66415688	     -4.45455026	     -1.62760786	     -1.28474847	      1.01881421	      0.66480217	      5.71439060	      1.93678006	     -5.52869393	    -17.25745732	     10.68660767	     -1.33486429	      1.96937578	     -1.47535565	     -3.70372550	    -11.36325261	     13.41742215	     -5.67840862	    -11.04256726	      3.81410057	      3.67899749
      0.06000000	     -1.69765665	     -4.44807319	     -1.76324777	     -1.28415279	      1.01861509	      0.66382221	      6.22091309	      1.82959885	     -5.41367805	    -18.16906320	     10.76110769	     -1.21542250	      2.01077844	     -1.39886458	     -3.77071251	    -11.47455348	     13.48197876	     -5.76287009	    -11.07821556	      3.77139135	      3.78022973
      0.07000000	     -1.78277787	     -4.44912430	     -1.91222400	     -1.28355392	      1.01832915	      0.66286569	      6.83465288	      1.73219689	     -5.28755183	    -19.16859949	     10.79929307	     -1.05127473	      2.10922871	     -1.33161218	     -3.83460869	    -11.59147638	     13.55586460	     -5.87432637	    -11.05173008	      3.74424378	      3.87247740
      0.08000000	     -1.83756608	     -4.43544076	     -2.06892946	     -1.28294467	      1.01807964	      0.66194986	      7.45445003	      1.62471240	     -5.12668074	    -20.23599370	     10.83813192	     -0.90588748	      2.17294929	     -1.24753205	     -3.90612063	    -11.70552238	     13.62800406	     -5.98064828	    -11.06434968	      3.69601036	      3.95577908
      0.09000000	     -1.89298800	     -4.41876199	     -2.22960167	     -1.28232916	      1.01782184	      0.66108108	      8.11807152	      1.52080000	     -4.94351212	    -21.37747913	     10.85294203	     -0.75479421	      2.23270207	     -1.16253243	     -3.97863748	    -11.81285642	     13.70220091	     -6.08726361	    -11.07670204	      3.64527592	      4.03007010
      0.10000000	     -1.97803422	     -4.40393606	     -2.38843113	     -1.28171064	      1.01750901	      0.66023914	      8.85736050	      1.42532162	     -4.75208794	    -22.59701485	     10.82796915	     -0.56945150	      2.31984857	     -1.08183750	     -4.05104060	    -11.90912125	     13.79441339	     -6.20104634	    -11.05350575	      3.60177683	      4.07430961
      0.11000000	     -2.02098173	     -4.37368562	     -2.54573436	     -1.28108617	      1.01725405	      0.65943278	      9.58616682	      1.32246050	     -4.52606330	    -23.87523120	     10.79161903	     -0.41140402	      2.35635294	     -0.98447776	     -4.12582966	    -11.99565811	     13.87181010	     -6.28765428	    -11.08493005	      3.53809405	      4.11298495
      0.12000000	     -2.02278659	     -4.32193413	     -2.70543244	     -1.28043037	      1.01705684	      0.65867824	     10.30228550	      1.20845833	     -4.25937746	    -25.20610393	     10.75471635	     -0.29356689	      2.33099379	     -0.86453251	     -4.21458122	    -12.05133329	     13.91591371	     -6.34978243	    -11.16731778	      3.44129743	      4.14178005
      0.13000000	     -2.03919659	     -4.26757840	     -2.85389777	     -1.27973596	      1.01682696	      0.65791339	     11.06228399	      1.09706032	     -3.98916858	    -26.58118972	     10.67409998	     -0.17465394	      2.31035081	     -0.74226723	     -4.30466090	    -12.08702562	     13.97665968	     -6.41075269	    -11.23063259	      3.35323958	      4.13855224
      0.14000000	     -2.04065461	     -4.20984365	     -2.98726739	     -1.27898739	      1.01661748	      0.65716229	     11.82239728	      0.99055549	     -3.70869174	    -27.97705141	     10.58175676	     -0.08985874	      2.25741642	     -0.61714556	     -4.39102569	    -12.09418279	     14.02973198	     -6.46678595	    -11.31009447	      3.26232063	      4.10684600
      0.15000000	     -2.07041742	     -4.15944288	     -3.09410094	     -1.27819337	      1.01635844	      0.65640823	     12.62333174	      0.89995495	     -3.43492059	    -29.37556606	     10.47565599	     -0.02885649	      2.22878412	     -0.50383555	     -4.46852876	    -12.09026857	     14.11494869	     -6.53623002	    -11.35359074	      3.18785531	      4.03877901
      0.16000000	     -2.01631982	     -4.08967322	     -3.19082578	     -1.27732314	      1.01624165	      0.65567795	     13.33123161	      0.79926236	     -3.12928605	    -30.74587571	     10.43108856	     -0.05924612	      2.07838283	     -0.36487853	     -4.54779456	    -12.03032801	     14.12357444	     -6.58232983	    -11.49836240	      3.08384671	      3.96475229
